# xmcd
#
# Track frame offsets:
#	150
#	11477
#	23836
#	35474
#	48399
#	61226
#	73046
#	85474
#	95325
#	107380
#	119659
#	133732
#	146420
#	158366
#	171760
#	184527
#	197049
#	208956
#	219932
#	232926
#	243831
#	257162
#	267170
#	280509
#	294506
#	307145
#	320568
#
# Disc length: 4422 seconds
#
# Revision: 1
# Processed by: cddbd v1.5.2PL0 Copyright (c) Steve Scherf et al.
# Submitted via: audiograbber 1.83.01
#
DISCID=7f11441b
DTITLE=Various Artist - Stax Singles [CD 9)
DYEAR=1900
DGENRE=
TTITLE0=Rufus Thomas \\ Down Ta My House
TTITLE1=Charmels \\ As Long As I've Got You
TTITLE2=Jeanne and The Darlings \\ Soul Girl
TTITLE3=Albert King \\ Cold Feet
TTITLE4=Sam and Dave \\ I Thank You
TTITLE5=Sam and Dave \\ Wrap It Up
TTITLE6=Otis Redding \\ (Sittin' On) The Dock Of The Bay
TTITLE7=Memphis Nomads \\ Don't Pass Your Judgement
TTITLE8=Otis and Carla \\ Lovey Dovey
TTITLE9=Ollie and The Nightingales \\ I Got A Sure Thing
TTITLE10=Eddie Floyd \\ Big Bird
TTITLE11=Bar-Kays \\ A Hard Day's Night
TTITLE12=Johnnie Taylor \\ Next Time
TTITLE13=William Bell \\ A Tribute To A King
TTITLE14=William Bell \\ Every Man Oughta Have A Woman
TTITLE15=Mable John \\ Able Mable
TTITLE16=Rufus Thomas \\ The Memphis Train
TTITLE17=Rufus Thomas \\ I Think I Made A Boo BOO
TTITLE18=Jeanne and The Darlings \\ What Will Later Be Like
TTITLE19=Jeanne and The Darlings \\ Hang Me Now
TTITLE20=Derek Martin \\ Soul Power
TTITLE21=Linda Lyndell \\ Bring Your Love Back To Me
TTITLE22=Carla Thomas \\ A Dime A Dozen
TTITLE23=Mad Lads \\ Whatever Hurts You
TTITLE24=Otis Redding \\ The Happy Song
TTITLE25=Albert King \\ (I Love) Lucy
TTITLE26=Johnnie Taylor \\ I Ain't Particular
EXTD=
EXTT0=
EXTT1=
EXTT2=
EXTT3=
EXTT4=
EXTT5=
EXTT6=
EXTT7=
EXTT8=
EXTT9=
EXTT10=
EXTT11=
EXTT12=
EXTT13=
EXTT14=
EXTT15=
EXTT16=
EXTT17=
EXTT18=
EXTT19=
EXTT20=
EXTT21=
EXTT22=
EXTT23=
EXTT24=
EXTT25=
EXTT26=
PLAYORDER=
